<svg width="1024" height="500" viewBox="0 0 1024 500" fill="none" xmlns="http://www.w3.org/2000/svg">
<rect width="1024" height="500" fill="#1E1E1E"/>
<rect width="1024" height="500" fill="black"/>
<path d="M300.06 245V63H361.185C371.102 63 380.102 64 388.185 66C396.352 68 403.31 71.0417 409.06 75.125C414.81 79.2083 419.227 84.375 422.31 90.625C425.477 96.875 427.06 104.25 427.06 112.75C426.977 118.25 425.977 123.458 424.06 128.375C422.227 133.208 419.477 137.458 415.81 141.125C413.81 143.125 411.518 144.958 408.935 146.625C406.435 148.292 403.643 149.708 400.56 150.875V151C406.56 152.667 411.31 154.792 414.81 157.375C418.393 159.958 421.393 162.958 423.81 166.375C426.31 170.042 428.143 174.042 429.31 178.375C430.56 182.625 431.185 187.042 431.185 191.625C431.185 200.375 429.685 208.083 426.685 214.75C423.685 221.417 419.393 227 413.81 231.5C408.227 236 401.435 239.375 393.435 241.625C385.435 243.875 376.435 245 366.435 245H300.06ZM335.31 164.75V216.625H366.56C371.143 216.625 375.227 216.042 378.81 214.875C382.477 213.708 385.518 212.125 387.935 210.125C390.602 207.875 392.602 205.167 393.935 202C395.352 198.833 396.06 195.292 396.06 191.375C396.06 187.292 395.518 183.625 394.435 180.375C393.435 177.125 391.81 174.375 389.56 172.125C387.31 169.792 384.393 168 380.81 166.75C377.227 165.5 372.977 164.833 368.06 164.75H335.31ZM335.31 139.375H361.435C366.768 139.292 371.477 138.667 375.56 137.5C379.643 136.25 382.935 134.417 385.435 132C387.518 130.083 389.102 127.75 390.185 125C391.352 122.25 391.935 119.125 391.935 115.625C391.935 111.958 391.435 108.75 390.435 106C389.518 103.25 388.102 100.958 386.185 99.125C383.685 96.5417 380.31 94.6667 376.06 93.5C371.893 92.3333 366.977 91.7083 361.31 91.625H335.31V139.375ZM513.625 146.875L549.5 63H588.125L530.875 182L530.75 245H495.75L495.625 180.5L439.25 63H477.75L513.625 146.875ZM729.69 167.375C729.69 175.208 728.982 182.667 727.565 189.75C726.148 196.75 724.107 203.25 721.44 209.25C718.607 215.25 715.107 220.75 710.94 225.75C706.773 230.75 702.023 234.917 696.69 238.25C691.857 241.167 686.523 243.417 680.69 245C674.94 246.667 668.732 247.5 662.065 247.5C654.982 247.5 648.44 246.583 642.44 244.75C636.44 242.917 630.982 240.333 626.065 237C621.232 233.5 616.898 229.292 613.065 224.375C609.232 219.375 606.023 213.75 603.44 207.5C601.107 201.75 599.315 195.5 598.065 188.75C596.898 182 596.315 174.875 596.315 167.375V140.875C596.315 132.875 596.982 125.292 598.315 118.125C599.732 110.958 601.773 104.333 604.44 98.25C607.023 92.5 610.148 87.2917 613.815 82.625C617.565 77.9583 621.857 73.9583 626.69 70.625C631.44 67.375 636.773 64.875 642.69 63.125C648.607 61.375 655.023 60.5 661.94 60.5C668.94 60.5 675.482 61.4167 681.565 63.25C687.732 65 693.273 67.5417 698.19 70.875C703.107 74.0417 707.398 77.875 711.065 82.375C714.815 86.875 718.023 91.8333 720.69 97.25C723.607 103.417 725.815 110.167 727.315 117.5C728.898 124.833 729.69 132.625 729.69 140.875V167.375ZM694.065 140.625C694.065 135.958 693.815 131.542 693.315 127.375C692.898 123.125 692.19 119.208 691.19 115.625C689.94 111.125 688.273 107.125 686.19 103.625C684.107 100.042 681.648 97.125 678.815 94.875C676.565 93.2083 674.023 91.9167 671.19 91C668.44 90.0833 665.357 89.625 661.94 89.625C658.69 89.625 655.732 90.0417 653.065 90.875C650.482 91.7083 648.148 92.9167 646.065 94.5C643.232 96.8333 640.815 99.75 638.815 103.25C636.898 106.75 635.398 110.833 634.315 115.5C633.482 119.083 632.857 123 632.44 127.25C632.107 131.5 631.94 135.958 631.94 140.625V167.375C631.94 171.792 632.107 176.042 632.44 180.125C632.773 184.208 633.357 188 634.19 191.5C635.107 195.917 636.44 199.958 638.19 203.625C640.023 207.208 642.148 210.125 644.565 212.375C646.815 214.375 649.357 215.917 652.19 217C655.107 218.083 658.398 218.625 662.065 218.625C665.565 218.625 668.773 218.125 671.69 217.125C674.607 216.125 677.19 214.667 679.44 212.75C682.273 210.417 684.648 207.5 686.565 204C688.565 200.417 690.148 196.375 691.315 191.875C692.232 188.375 692.898 184.542 693.315 180.375C693.815 176.208 694.065 171.875 694.065 167.375V140.625ZM299.56 435V253H346.685C355.102 253 362.977 254.042 370.31 256.125C377.643 258.125 384.31 261 390.31 264.75C395.56 267.833 400.227 271.625 404.31 276.125C408.477 280.542 412.102 285.375 415.185 290.625C418.768 297.042 421.518 304.125 423.435 311.875C425.435 319.625 426.435 327.875 426.435 336.625V351.625C426.435 360.042 425.518 368 423.685 375.5C421.852 383 419.268 389.875 415.935 396.125C412.768 401.708 409.06 406.875 404.81 411.625C400.56 416.292 395.893 420.208 390.81 423.375C384.893 427.125 378.352 430 371.185 432C364.102 434 356.518 435 348.435 435H299.56ZM334.935 281.5V406.75H348.435C352.768 406.75 356.81 406.208 360.56 405.125C364.31 404.042 367.727 402.458 370.81 400.375C373.977 398.208 376.81 395.458 379.31 392.125C381.893 388.708 384.102 384.75 385.935 380.25C387.435 376.333 388.56 372 389.31 367.25C390.143 362.417 390.56 357.208 390.56 351.625V336.375C390.56 331.125 390.143 326.167 389.31 321.5C388.56 316.75 387.435 312.417 385.935 308.5C384.102 303.833 381.685 299.667 378.685 296C375.768 292.333 372.352 289.333 368.435 287C365.435 285.25 362.102 283.917 358.435 283C354.852 282 350.935 281.5 346.685 281.5H334.935ZM571.5 435H536.5L485.875 317.625V435H450.5V253H485.875L536.125 369.875L536.25 253H571.5V435ZM697.19 387.5C697.19 384.25 696.607 381.208 695.44 378.375C694.357 375.542 692.482 372.875 689.815 370.375C687.065 367.958 683.482 365.75 679.065 363.75C674.732 361.667 669.315 359.75 662.815 358C652.732 355.25 643.857 351.917 636.19 348C628.607 344.083 622.398 339.792 617.565 335.125C612.732 330.458 609.065 325.292 606.565 319.625C604.148 313.958 602.94 307.792 602.94 301.125C602.94 293.458 604.565 286.5 607.815 280.25C611.065 274 615.565 268.667 621.315 264.25C627.065 259.833 633.857 256.458 641.69 254.125C649.523 251.708 658.023 250.5 667.19 250.5C676.69 250.5 685.357 251.875 693.19 254.625C701.107 257.375 707.898 261.208 713.565 266.125C719.232 271.125 723.648 277.042 726.815 283.875C729.982 290.708 731.565 298.208 731.565 306.375H697.315C697.148 302.292 696.398 298.542 695.065 295.125C693.815 291.708 691.94 288.75 689.44 286.25C686.857 283.833 683.648 281.958 679.815 280.625C676.065 279.208 671.648 278.5 666.565 278.5C661.898 278.5 657.732 279.083 654.065 280.25C650.482 281.333 647.44 282.875 644.94 284.875C642.44 286.958 640.523 289.417 639.19 292.25C637.94 295 637.315 298 637.315 301.25C637.315 304.667 638.148 307.75 639.815 310.5C641.565 313.25 644.065 315.708 647.315 317.875C650.565 320.125 654.482 322.167 659.065 324C663.732 325.833 668.982 327.542 674.815 329.125C681.065 330.875 687.023 333 692.69 335.5C698.357 338 703.565 340.875 708.315 344.125C715.482 349.458 721.19 355.667 725.44 362.75C729.69 369.833 731.815 378 731.815 387.25C731.815 395.25 730.19 402.375 726.94 408.625C723.773 414.792 719.357 420 713.69 424.25C708.023 428.583 701.273 431.875 693.44 434.125C685.607 436.292 677.065 437.375 667.815 437.375C658.732 437.375 649.732 436.042 640.815 433.375C631.982 430.625 624.273 426.625 617.69 421.375C611.44 416.208 606.482 410.125 602.815 403.125C599.232 396.125 597.44 387.917 597.44 378.5H631.94C632.107 384 633.065 388.708 634.815 392.625C636.565 396.542 639.023 399.75 642.19 402.25C645.273 404.75 648.982 406.583 653.315 407.75C657.732 408.917 662.565 409.5 667.815 409.5C672.482 409.5 676.607 408.958 680.19 407.875C683.857 406.792 686.94 405.292 689.44 403.375C691.94 401.458 693.857 399.167 695.19 396.5C696.523 393.75 697.19 390.75 697.19 387.5Z" fill="white"/>
<rect x="272" y="441" width="480" height="48" fill="#FF0000"/>
<rect x="272" y="9" width="480" height="48" fill="#FF0000"/>
</svg>
