<svg width="512" height="512" viewBox="0 0 512 512" fill="none" xmlns="http://www.w3.org/2000/svg">
<rect width="512" height="512" fill="#1E1E1E"/>
<rect width="512" height="512" fill="black"/>
<path d="M44.06 252V70H105.185C115.102 70 124.102 71 132.185 73C140.352 75 147.31 78.0417 153.06 82.125C158.81 86.2083 163.227 91.375 166.31 97.625C169.477 103.875 171.06 111.25 171.06 119.75C170.977 125.25 169.977 130.458 168.06 135.375C166.227 140.208 163.477 144.458 159.81 148.125C157.81 150.125 155.518 151.958 152.935 153.625C150.435 155.292 147.643 156.708 144.56 157.875V158C150.56 159.667 155.31 161.792 158.81 164.375C162.393 166.958 165.393 169.958 167.81 173.375C170.31 177.042 172.143 181.042 173.31 185.375C174.56 189.625 175.185 194.042 175.185 198.625C175.185 207.375 173.685 215.083 170.685 221.75C167.685 228.417 163.393 234 157.81 238.5C152.227 243 145.435 246.375 137.435 248.625C129.435 250.875 120.435 252 110.435 252H44.06ZM79.31 171.75V223.625H110.56C115.143 223.625 119.227 223.042 122.81 221.875C126.477 220.708 129.518 219.125 131.935 217.125C134.602 214.875 136.602 212.167 137.935 209C139.352 205.833 140.06 202.292 140.06 198.375C140.06 194.292 139.518 190.625 138.435 187.375C137.435 184.125 135.81 181.375 133.56 179.125C131.31 176.792 128.393 175 124.81 173.75C121.227 172.5 116.977 171.833 112.06 171.75H79.31ZM79.31 146.375H105.435C110.768 146.292 115.477 145.667 119.56 144.5C123.643 143.25 126.935 141.417 129.435 139C131.518 137.083 133.102 134.75 134.185 132C135.352 129.25 135.935 126.125 135.935 122.625C135.935 118.958 135.435 115.75 134.435 113C133.518 110.25 132.102 107.958 130.185 106.125C127.685 103.542 124.31 101.667 120.06 100.5C115.893 99.3333 110.977 98.7083 105.31 98.625H79.31V146.375ZM257.625 153.875L293.5 70H332.125L274.875 189L274.75 252H239.75L239.625 187.5L183.25 70H221.75L257.625 153.875ZM473.69 174.375C473.69 182.208 472.982 189.667 471.565 196.75C470.148 203.75 468.107 210.25 465.44 216.25C462.607 222.25 459.107 227.75 454.94 232.75C450.773 237.75 446.023 241.917 440.69 245.25C435.857 248.167 430.523 250.417 424.69 252C418.94 253.667 412.732 254.5 406.065 254.5C398.982 254.5 392.44 253.583 386.44 251.75C380.44 249.917 374.982 247.333 370.065 244C365.232 240.5 360.898 236.292 357.065 231.375C353.232 226.375 350.023 220.75 347.44 214.5C345.107 208.75 343.315 202.5 342.065 195.75C340.898 189 340.315 181.875 340.315 174.375V147.875C340.315 139.875 340.982 132.292 342.315 125.125C343.732 117.958 345.773 111.333 348.44 105.25C351.023 99.5 354.148 94.2917 357.815 89.625C361.565 84.9583 365.857 80.9583 370.69 77.625C375.44 74.375 380.773 71.875 386.69 70.125C392.607 68.375 399.023 67.5 405.94 67.5C412.94 67.5 419.482 68.4167 425.565 70.25C431.732 72 437.273 74.5417 442.19 77.875C447.107 81.0417 451.398 84.875 455.065 89.375C458.815 93.875 462.023 98.8333 464.69 104.25C467.607 110.417 469.815 117.167 471.315 124.5C472.898 131.833 473.69 139.625 473.69 147.875V174.375ZM438.065 147.625C438.065 142.958 437.815 138.542 437.315 134.375C436.898 130.125 436.19 126.208 435.19 122.625C433.94 118.125 432.273 114.125 430.19 110.625C428.107 107.042 425.648 104.125 422.815 101.875C420.565 100.208 418.023 98.9167 415.19 98C412.44 97.0833 409.357 96.625 405.94 96.625C402.69 96.625 399.732 97.0417 397.065 97.875C394.482 98.7083 392.148 99.9167 390.065 101.5C387.232 103.833 384.815 106.75 382.815 110.25C380.898 113.75 379.398 117.833 378.315 122.5C377.482 126.083 376.857 130 376.44 134.25C376.107 138.5 375.94 142.958 375.94 147.625V174.375C375.94 178.792 376.107 183.042 376.44 187.125C376.773 191.208 377.357 195 378.19 198.5C379.107 202.917 380.44 206.958 382.19 210.625C384.023 214.208 386.148 217.125 388.565 219.375C390.815 221.375 393.357 222.917 396.19 224C399.107 225.083 402.398 225.625 406.065 225.625C409.565 225.625 412.773 225.125 415.69 224.125C418.607 223.125 421.19 221.667 423.44 219.75C426.273 217.417 428.648 214.5 430.565 211C432.565 207.417 434.148 203.375 435.315 198.875C436.232 195.375 436.898 191.542 437.315 187.375C437.815 183.208 438.065 178.875 438.065 174.375V147.625ZM43.56 442V260H90.685C99.1017 260 106.977 261.042 114.31 263.125C121.643 265.125 128.31 268 134.31 271.75C139.56 274.833 144.227 278.625 148.31 283.125C152.477 287.542 156.102 292.375 159.185 297.625C162.768 304.042 165.518 311.125 167.435 318.875C169.435 326.625 170.435 334.875 170.435 343.625V358.625C170.435 367.042 169.518 375 167.685 382.5C165.852 390 163.268 396.875 159.935 403.125C156.768 408.708 153.06 413.875 148.81 418.625C144.56 423.292 139.893 427.208 134.81 430.375C128.893 434.125 122.352 437 115.185 439C108.102 441 100.518 442 92.435 442H43.56ZM78.935 288.5V413.75H92.435C96.7683 413.75 100.81 413.208 104.56 412.125C108.31 411.042 111.727 409.458 114.81 407.375C117.977 405.208 120.81 402.458 123.31 399.125C125.893 395.708 128.102 391.75 129.935 387.25C131.435 383.333 132.56 379 133.31 374.25C134.143 369.417 134.56 364.208 134.56 358.625V343.375C134.56 338.125 134.143 333.167 133.31 328.5C132.56 323.75 131.435 319.417 129.935 315.5C128.102 310.833 125.685 306.667 122.685 303C119.768 299.333 116.352 296.333 112.435 294C109.435 292.25 106.102 290.917 102.435 290C98.8517 289 94.935 288.5 90.685 288.5H78.935ZM315.5 442H280.5L229.875 324.625V442H194.5V260H229.875L280.125 376.875L280.25 260H315.5V442ZM441.19 394.5C441.19 391.25 440.607 388.208 439.44 385.375C438.357 382.542 436.482 379.875 433.815 377.375C431.065 374.958 427.482 372.75 423.065 370.75C418.732 368.667 413.315 366.75 406.815 365C396.732 362.25 387.857 358.917 380.19 355C372.607 351.083 366.398 346.792 361.565 342.125C356.732 337.458 353.065 332.292 350.565 326.625C348.148 320.958 346.94 314.792 346.94 308.125C346.94 300.458 348.565 293.5 351.815 287.25C355.065 281 359.565 275.667 365.315 271.25C371.065 266.833 377.857 263.458 385.69 261.125C393.523 258.708 402.023 257.5 411.19 257.5C420.69 257.5 429.357 258.875 437.19 261.625C445.107 264.375 451.898 268.208 457.565 273.125C463.232 278.125 467.648 284.042 470.815 290.875C473.982 297.708 475.565 305.208 475.565 313.375H441.315C441.148 309.292 440.398 305.542 439.065 302.125C437.815 298.708 435.94 295.75 433.44 293.25C430.857 290.833 427.648 288.958 423.815 287.625C420.065 286.208 415.648 285.5 410.565 285.5C405.898 285.5 401.732 286.083 398.065 287.25C394.482 288.333 391.44 289.875 388.94 291.875C386.44 293.958 384.523 296.417 383.19 299.25C381.94 302 381.315 305 381.315 308.25C381.315 311.667 382.148 314.75 383.815 317.5C385.565 320.25 388.065 322.708 391.315 324.875C394.565 327.125 398.482 329.167 403.065 331C407.732 332.833 412.982 334.542 418.815 336.125C425.065 337.875 431.023 340 436.69 342.5C442.357 345 447.565 347.875 452.315 351.125C459.482 356.458 465.19 362.667 469.44 369.75C473.69 376.833 475.815 385 475.815 394.25C475.815 402.25 474.19 409.375 470.94 415.625C467.773 421.792 463.357 427 457.69 431.25C452.023 435.583 445.273 438.875 437.44 441.125C429.607 443.292 421.065 444.375 411.815 444.375C402.732 444.375 393.732 443.042 384.815 440.375C375.982 437.625 368.273 433.625 361.69 428.375C355.44 423.208 350.482 417.125 346.815 410.125C343.232 403.125 341.44 394.917 341.44 385.5H375.94C376.107 391 377.065 395.708 378.815 399.625C380.565 403.542 383.023 406.75 386.19 409.25C389.273 411.75 392.982 413.583 397.315 414.75C401.732 415.917 406.565 416.5 411.815 416.5C416.482 416.5 420.607 415.958 424.19 414.875C427.857 413.792 430.94 412.292 433.44 410.375C435.94 408.458 437.857 406.167 439.19 403.5C440.523 400.75 441.19 397.75 441.19 394.5Z" fill="white"/>
<rect x="16" y="448" width="480" height="48" fill="#FF0000"/>
<rect x="16" y="16" width="480" height="48" fill="#FF0000"/>
</svg>
